{
	"asset":{
		"generator":"Khronos glTF Blender I/O v4.5.47",
		"version":"2.0"
	},
	"scene":0,
	"scenes":[
		{
			"name":"Scene",
			"nodes":[
				0
			]
		}
	],
	"nodes":[
		{
			"mesh":0,
			"name":"Icosphere"
		}
	],
	"materials":[
		{
			"doubleSided":true,
			"name":"black",
			"pbrMetallicRoughness":{
				"baseColorFactor":[
					0,
					0,
					0,
					1
				],
				"metallicFactor":0,
				"roughnessFactor":0.30000001192092896
			}
		},
		{
			"doubleSided":true,
			"name":"white",
			"pbrMetallicRoughness":{
				"metallicFactor":0,
				"roughnessFactor":0.30000001192092896
			}
		}
	],
	"meshes":[
		{
			"name":"Icosphere.001",
			"primitives":[
				{
					"attributes":{
						"POSITION":0,
						"NORMAL":1,
						"TEXCOORD_0":2
					},
					"indices":3,
					"material":0
				},
				{
					"attributes":{
						"POSITION":4,
						"NORMAL":5,
						"TEXCOORD_0":6
					},
					"indices":7,
					"material":1
				}
			]
		}
	],
	"accessors":[
		{
			"bufferView":0,
			"componentType":5126,
			"count":3697,
			"max":[
				0.28920501470565796,
				0.29380857944488525,
				0.2937338352203369
			],
			"min":[
				-0.28942838311195374,
				-0.29380857944488525,
				-0.2937338352203369
			],
			"type":"VEC3"
		},
		{
			"bufferView":1,
			"componentType":5126,
			"count":3697,
			"type":"VEC3"
		},
		{
			"bufferView":2,
			"componentType":5126,
			"count":3697,
			"type":"VEC2"
		},
		{
			"bufferView":3,
			"componentType":5123,
			"count":19380,
			"type":"SCALAR"
		},
		{
			"bufferView":4,
			"componentType":5126,
			"count":5448,
			"max":[
				0.29373306035995483,
				0.2812751233577728,
				0.2937338352203369
			],
			"min":[
				-0.29373306035995483,
				-0.2812751233577728,
				-0.2937338352203369
			],
			"type":"VEC3"
		},
		{
			"bufferView":5,
			"componentType":5126,
			"count":5448,
			"type":"VEC3"
		},
		{
			"bufferView":6,
			"componentType":5126,
			"count":5448,
			"type":"VEC2"
		},
		{
			"bufferView":7,
			"componentType":5123,
			"count":29760,
			"type":"SCALAR"
		}
	],
	"bufferViews":[
		{
			"buffer":0,
			"byteLength":44364,
			"byteOffset":0,
			"target":34962
		},
		{
			"buffer":0,
			"byteLength":44364,
			"byteOffset":44364,
			"target":34962
		},
		{
			"buffer":0,
			"byteLength":29576,
			"byteOffset":88728,
			"target":34962
		},
		{
			"buffer":0,
			"byteLength":38760,
			"byteOffset":118304,
			"target":34963
		},
		{
			"buffer":0,
			"byteLength":65376,
			"byteOffset":157064,
			"target":34962
		},
		{
			"buffer":0,
			"byteLength":65376,
			"byteOffset":222440,
			"target":34962
		},
		{
			"buffer":0,
			"byteLength":43584,
			"byteOffset":287816,
			"target":34962
		},
		{
			"buffer":0,
			"byteLength":59520,
			"byteOffset":331400,
			"target":34963
		}
	],
	"buffers":[
		{
			"byteLength":390920,
			"uri":"ball-f46fb61a0a55c7ea03f1fae25cd3e1e9.bin"
		}
	]
}
