{
	"asset":{
		"generator":"Khronos glTF Blender I/O v4.5.47",
		"version":"2.0"
	},
	"scene":0,
	"scenes":[
		{
			"name":"Scene",
			"nodes":[
				0
			]
		}
	],
	"nodes":[
		{
			"mesh":0,
			"name":"Cube",
			"rotation":[
				1,
				0,
				0,
				0
			],
			"scale":[
				-4.112090110778809,
				-0.45910173654556274,
				-7.150555610656738
			]
		}
	],
	"materials":[
		{
			"doubleSided":true,
			"name":"field",
			"pbrMetallicRoughness":{
				"baseColorTexture":{
					"index":0
				},
				"metallicFactor":0,
				"roughnessFactor":0.5
			}
		},
		{
			"doubleSided":true,
			"name":"Material.001",
			"pbrMetallicRoughness":{
				"baseColorFactor":[
					0.39092063903808594,
					0.11624825745820999,
					0.0038890575524419546,
					1
				],
				"metallicFactor":0,
				"roughnessFactor":0.5
			}
		},
		{
			"doubleSided":true,
			"name":"Material",
			"pbrMetallicRoughness":{
				"baseColorFactor":[
					0.015158970840275288,
					0.015158970840275288,
					0.015158970840275288,
					1
				],
				"metallicFactor":0,
				"roughnessFactor":0.5
			}
		}
	],
	"meshes":[
		{
			"name":"Cube",
			"primitives":[
				{
					"attributes":{
						"POSITION":0,
						"NORMAL":1,
						"TEXCOORD_0":2
					},
					"indices":3,
					"material":0
				},
				{
					"attributes":{
						"POSITION":4,
						"NORMAL":5,
						"TEXCOORD_0":6
					},
					"indices":7,
					"material":1
				},
				{
					"attributes":{
						"POSITION":8,
						"NORMAL":9,
						"TEXCOORD_0":10
					},
					"indices":11,
					"material":2
				}
			]
		}
	],
	"textures":[
		{
			"sampler":0,
			"source":0
		}
	],
	"images":[
		{
			"mimeType":"image/png",
			"name":"field.png",
			"uri":"../../../../Desktop/field.png"
		}
	],
	"accessors":[
		{
			"bufferView":0,
			"componentType":5126,
			"count":44,
			"max":[
				0.8410539031028748,
				1,
				0.8410539031028748
			],
			"min":[
				-0.8410539031028748,
				1,
				-0.8410539031028748
			],
			"type":"VEC3"
		},
		{
			"bufferView":1,
			"componentType":5126,
			"count":44,
			"type":"VEC3"
		},
		{
			"bufferView":2,
			"componentType":5126,
			"count":44,
			"type":"VEC2"
		},
		{
			"bufferView":3,
			"componentType":5123,
			"count":126,
			"type":"SCALAR"
		},
		{
			"bufferView":4,
			"componentType":5126,
			"count":924,
			"max":[
				1,
				1,
				1
			],
			"min":[
				-1,
				-1.2953531742095947,
				-1
			],
			"type":"VEC3"
		},
		{
			"bufferView":5,
			"componentType":5126,
			"count":924,
			"type":"VEC3"
		},
		{
			"bufferView":6,
			"componentType":5126,
			"count":924,
			"type":"VEC2"
		},
		{
			"bufferView":7,
			"componentType":5123,
			"count":1710,
			"type":"SCALAR"
		},
		{
			"bufferView":8,
			"componentType":5126,
			"count":1504,
			"max":[
				0.970101535320282,
				3.812485456466675,
				0.9701014757156372
			],
			"min":[
				-0.970101535320282,
				-0.9740303754806519,
				-0.9701014757156372
			],
			"type":"VEC3"
		},
		{
			"bufferView":9,
			"componentType":5126,
			"count":1504,
			"type":"VEC3"
		},
		{
			"bufferView":10,
			"componentType":5126,
			"count":1504,
			"type":"VEC2"
		},
		{
			"bufferView":11,
			"componentType":5123,
			"count":2640,
			"type":"SCALAR"
		}
	],
	"bufferViews":[
		{
			"buffer":0,
			"byteLength":528,
			"byteOffset":0,
			"target":34962
		},
		{
			"buffer":0,
			"byteLength":528,
			"byteOffset":528,
			"target":34962
		},
		{
			"buffer":0,
			"byteLength":352,
			"byteOffset":1056,
			"target":34962
		},
		{
			"buffer":0,
			"byteLength":252,
			"byteOffset":1408,
			"target":34963
		},
		{
			"buffer":0,
			"byteLength":11088,
			"byteOffset":1660,
			"target":34962
		},
		{
			"buffer":0,
			"byteLength":11088,
			"byteOffset":12748,
			"target":34962
		},
		{
			"buffer":0,
			"byteLength":7392,
			"byteOffset":23836,
			"target":34962
		},
		{
			"buffer":0,
			"byteLength":3420,
			"byteOffset":31228,
			"target":34963
		},
		{
			"buffer":0,
			"byteLength":18048,
			"byteOffset":34648,
			"target":34962
		},
		{
			"buffer":0,
			"byteLength":18048,
			"byteOffset":52696,
			"target":34962
		},
		{
			"buffer":0,
			"byteLength":12032,
			"byteOffset":70744,
			"target":34962
		},
		{
			"buffer":0,
			"byteLength":5280,
			"byteOffset":82776,
			"target":34963
		}
	],
	"samplers":[
		{
			"magFilter":9729,
			"minFilter":9987
		}
	],
	"buffers":[
		{
			"byteLength":88056,
			"uri":"field-90ac796bbcb6241533595ccd5671ef1f.bin"
		}
	]
}
