{
	"asset":{
		"generator":"Khronos glTF Blender I/O v4.5.47",
		"version":"2.0"
	},
	"scene":0,
	"scenes":[
		{
			"name":"Scene",
			"nodes":[
				0,
				1
			]
		}
	],
	"nodes":[
		{
			"mesh":0,
			"name":"Tube",
			"scale":[
				0.7247119545936584,
				0.7247119545936584,
				0.7247119545936584
			],
			"translation":[
				0,
				1.3200733661651611,
				0
			]
		},
		{
			"mesh":1,
			"name":"Cube",
			"scale":[
				1.6261876821517944,
				1,
				1
			],
			"translation":[
				-1.6353566646575928,
				1.2353216409683228,
				0.029195670038461685
			]
		}
	],
	"materials":[
		{
			"doubleSided":true,
			"name":"gray",
			"pbrMetallicRoughness":{
				"baseColorFactor":[
					0.3409879803657532,
					0.4019243121147156,
					0.3463685214519501,
					1
				],
				"metallicFactor":0.42553192377090454,
				"roughnessFactor":0.26595744490623474
			}
		}
	],
	"meshes":[
		{
			"name":"Cylinder.001",
			"primitives":[
				{
					"attributes":{
						"POSITION":0,
						"NORMAL":1,
						"TEXCOORD_0":2
					},
					"indices":3,
					"material":0
				}
			]
		},
		{
			"name":"Cube.001",
			"primitives":[
				{
					"attributes":{
						"POSITION":4,
						"NORMAL":5,
						"TEXCOORD_0":6,
						"TANGENT":7
					},
					"indices":8
				}
			]
		}
	],
	"accessors":[
		{
			"bufferView":0,
			"componentType":5126,
			"count":667,
			"max":[
				0.32827118039131165,
				3.8360791206359863,
				3.7584846019744873
			],
			"min":[
				-5.209909915924072,
				-1.8724135160446167,
				-3.7584846019744873
			],
			"type":"VEC3"
		},
		{
			"bufferView":1,
			"componentType":5126,
			"count":667,
			"type":"VEC3"
		},
		{
			"bufferView":2,
			"componentType":5126,
			"count":667,
			"type":"VEC2"
		},
		{
			"bufferView":3,
			"componentType":5123,
			"count":3690,
			"type":"SCALAR"
		},
		{
			"bufferView":4,
			"componentType":5126,
			"count":131072,
			"max":[
				1.01112699508667,
				2.767151117324829,
				2.569232702255249
			],
			"min":[
				-1.2678779363632202,
				-1.137675166130066,
				-2.614776611328125
			],
			"type":"VEC3"
		},
		{
			"bufferView":5,
			"componentType":5126,
			"count":131072,
			"type":"VEC3"
		},
		{
			"bufferView":6,
			"componentType":5126,
			"count":131072,
			"type":"VEC2"
		},
		{
			"bufferView":7,
			"componentType":5126,
			"count":131072,
			"type":"VEC4"
		},
		{
			"bufferView":8,
			"componentType":5125,
			"count":196608,
			"type":"SCALAR"
		}
	],
	"bufferViews":[
		{
			"buffer":0,
			"byteLength":8004,
			"byteOffset":0,
			"target":34962
		},
		{
			"buffer":0,
			"byteLength":8004,
			"byteOffset":8004,
			"target":34962
		},
		{
			"buffer":0,
			"byteLength":5336,
			"byteOffset":16008,
			"target":34962
		},
		{
			"buffer":0,
			"byteLength":7380,
			"byteOffset":21344,
			"target":34963
		},
		{
			"buffer":0,
			"byteLength":1572864,
			"byteOffset":28724,
			"target":34962
		},
		{
			"buffer":0,
			"byteLength":1572864,
			"byteOffset":1601588,
			"target":34962
		},
		{
			"buffer":0,
			"byteLength":1048576,
			"byteOffset":3174452,
			"target":34962
		},
		{
			"buffer":0,
			"byteLength":2097152,
			"byteOffset":4223028,
			"target":34962
		},
		{
			"buffer":0,
			"byteLength":786432,
			"byteOffset":6320180,
			"target":34963
		}
	],
	"buffers":[
		{
			"byteLength":7106612,
			"uri":"goal-18678e50658e70064242a36f4501976c.bin"
		}
	]
}
